# xmcd CD database file
#
# Track frame offsets:
#	150
#	33840
#	64830
#	94765
#	132320
#	155585
#	183645
#	216572
#	236972
#
# Disc length: 3477 seconds
#
# Revision: 5
# Processed by: cddbd v1.5.2PL0 Copyright (c) Steve Scherf et al.
# Submitted via: CDex 1.81
#
DISCID=860d9309
DTITLE=Johnny Winter - Live In NYC '97
DYEAR=1997
DGENRE=Blues
TTITLE0=Hideaway
TTITLE1=Sen-sa-shun/Got My Mojo Working
TTITLE2=She Likes To Boogie Real Low
TTITLE3=Black Jack
TTITLE4=Just A Little Bit
TTITLE5=The Sun Is Shining
TTITLE6=The Sky Is Crying
TTITLE7=Johnny Guitar
TTITLE8=Drop The Bomb
EXTD=YEAR: 1997
EXTT0=
EXTT1=
EXTT2=
EXTT3=
EXTT4=
EXTT5=
EXTT6=
EXTT7=
EXTT8=
PLAYORDER=
